<svg xmlns="http://www.w3.org/2000/svg" width="58" height="58" viewBox="0 0 58 58">
  <g id="Group_23" data-name="Group 23" transform="translate(-278 -2658)">
    <g id="Instagram" transform="translate(278 2658)">
      <path id="Path_7" data-name="Path 7" d="M29,0A29,29,0,1,1,0,29,29,29,0,0,1,29,0Z" fill="#1da1f2"/>
    </g>
    <path id="Icon_awesome-twitter" data-name="Icon awesome-twitter" d="M27.438,10.345c.019.306.019.611.019.917,0,9.321-6.306,20.062-17.833,20.062A16.316,16.316,0,0,1,0,28.158a11.54,11.54,0,0,0,1.514.087,11.7,11.7,0,0,0,7.781-3.013,6.421,6.421,0,0,1-5.86-4.89,7.047,7.047,0,0,0,1.184.109,5.937,5.937,0,0,0,1.649-.24,6.9,6.9,0,0,1-5.026-6.92V13.2a5.794,5.794,0,0,0,2.833.895A7.313,7.313,0,0,1,1.281,8.227a7.677,7.677,0,0,1,.854-3.558,17.251,17.251,0,0,0,12.923,7.379,8.917,8.917,0,0,1-.155-1.615c0-3.886,2.794-7.051,6.268-7.051a5.953,5.953,0,0,1,4.58,2.227,11.543,11.543,0,0,0,3.978-1.7A6.945,6.945,0,0,1,26.972,7.79,11.485,11.485,0,0,0,30.582,6.7a14.514,14.514,0,0,1-3.143,3.646Z" transform="translate(291.709 2669.648)" fill="#fff"/>
  </g>
</svg>
